<svg xmlns:svg="http://www.w3.org/2000/svg" xmlns="http://www.w3.org/2000/svg" width="13" height="10.3" viewBox="0 0 45.9 36.7" version="1.1"><g transform="translate(-393.26361,-361.60396)"><path d="m101 60.5c-1.5 0-2.8 1.2-2.8 2.8l0 23c0 1.5 1.2 2.8 2.8 2.8l32.3 0c1.5 0 2.8-1.2 2.8-2.8l0-23c0-1.5-1.2-2.8-2.8-2.8l-32.3 0zm-2.4 6.4c16.3 3.6 18.6 7.1 18.6 7.1 0 0 2.3-3.4 18.6-7.1-18.5 6.8-18.5 9.3-18.6 9.4-0.1-0.1-0.1-2.6-18.6-9.4z" transform="translate(299.09207,305.10235)" fill="#fff"/></g></svg>
