<svg xmlns="http://www.w3.org/2000/svg" viewBox="0 0 725 875" fill-rule="evenodd" clip-rule="evenodd" stroke-miterlimit="10"><path d="M174.006 501.621c-8.347 0-16.534 1.592-24.512 4.645v191.062h-8.955c27.268 0 49.373 22.791 49.373 50.908s-22.105 50.909-49.373 50.909c-27.268 0-49.373-22.792-49.373-50.909 0-28.117 22.105-50.908 49.373-50.908h-9.256V516.014c-62.827 43.377-108.644 180-108.644 342.09h334.545L174.006 501.62zm380.293 0L371.12 858.104h334.545c0-173.763-52.649-318.281-122.467-350.004v128.677c44.376 2.38 65.53 94.788 37.647 121.393.277.37.525.755.752 1.152.067.118.136.236.199.356a10.505 10.505 0 0 1 .43.94c.06.147.123.294.175.445l.002.005c.102.29.187.584.262.883.025.1.043.2.064.301.054.247.099.497.133.75.014.102.029.204.04.307.035.34.06.682.06 1.03 0 .392-.024.78-.068 1.161-.008.067-.026.132-.036.2a9.999 9.999 0 0 1-.486 2.015 10.741 10.741 0 0 1-1.65 2.97c-.11.14-.234.271-.35.407-.135.157-.263.318-.406.469-.13.136-.275.261-.412.392-.427.407-.876.797-1.366 1.147a13.82 13.82 0 0 1-4.44 2.082 15.144 15.144 0 0 1-3.9.51c-1.36 0-2.67-.179-3.902-.51a13.83 13.83 0 0 1-4.443-2.082 12.465 12.465 0 0 1-1.777-1.54 11.442 11.442 0 0 1-1.413-1.81 10.527 10.527 0 0 1-.994-2.035 9.947 9.947 0 0 1-.59-3.375c0-.37.025-.734.065-1.094.012-.11.035-.218.05-.328.036-.244.073-.486.126-.725.03-.136.067-.27.103-.404a10.02 10.02 0 0 1 .338-1.04c.074-.193.155-.382.24-.57.063-.136.126-.272.194-.406.098-.192.204-.38.314-.566.072-.123.14-.247.217-.367.12-.187.251-.367.383-.547.08-.11.155-.224.24-.332.028-.036.061-.068.09-.104.186-.23.379-.458.584-.675.125-.134.262-.259.394-.387.122-.117.239-.237.366-.35.16-.142.328-.277.496-.412.115-.092.23-.184.35-.273.176-.132.358-.259.542-.383a13.14 13.14 0 0 1 .965-.592c.106-.058.214-.114.322-.17.229-.119.458-.237.696-.344.067-.03.138-.056.207-.085a14.352 14.352 0 0 1 2.804-.88c.048-.01.095-.023.143-.033l-.756-.285c25.036-23.565 7.187-105.926-31.926-107.55h-.209c-39.112 1.624-56.961 83.985-31.925 107.55l-.756.285c5.853 1.14 10.228 5.659 10.228 11.067 0 6.268-5.873 11.351-13.117 11.351-7.243 0-13.115-5.083-13.115-11.351 0-2.277.783-4.393 2.117-6.17-27.883-26.605-6.73-119.013 37.646-121.393v-134.25a65.997 65.997 0 0 0-10.847-.906z" fill="#fff" fill-rule="nonzero" stroke="#fff" stroke-width="1.704"/><path d="M377.555 504.758l-.71-.002-.718-.003-.717-.005-.718-.009-.715-.01-.718-.012-.714-.015-.716-.017-.714-.02-.714-.021-.712-.024-.712-.027-.713-.03-.712-.03-.71-.032-.711-.036-.71-.037-.708-.04-.71-.042-.708-.045-.707-.046-.708-.049-.705-.051-.706-.053-.705-.056-.704-.056-.704-.06-.704-.063-.702-.065-.702-.066-.7-.069-.7-.071-.701-.072-.699-.076-.698-.077-.7-.08-.696-.082-.697-.083-.695-.087-.697-.089-.694-.09-.694-.092-.693-.096-.694-.097-.692-.099-.692-.102-.69-.102-.69-.106-.689-.107-.688-.111-.688-.113-.687-.114-.687-.116-.685-.117-.685-.121-.685-.123-.684-.124-.683-.128-.682-.13-.681-.13-.68-.134-.68-.134-.68-.138-.678-.138-.679-.144-.676-.143-.677-.145-.675-.148-.675-.15-.673-.152-.673-.155-.673-.155-.671-.158-.672-.16-.67-.162-.668-.166-.67-.165-.666-.169-.668-.17-.664-.172-.667-.174-.664-.177-.663-.18-.663-.18-.661-.182-.662-.184-.66-.188-.66-.187-.658-.19-.658-.194-.658-.194-.656-.197-.654-.198-.655-.201-.654-.203-.653-.205-.65-.206-.652-.208-.65-.211-.648-.211-.65-.215-.647-.216-.646-.219-.646-.22-.644-.223-.644-.223-.643-.227-.642-.228-.641-.23-.64-.232-.64-.233-.639-.235-.637-.239-.638-.239-.635-.242-.634-.243-.634-.246-.634-.247-.63-.249-.633-.25-.629-.252-.629-.256-.628-.256-.628-.259-.627-.26-.625-.263-.624-.264-.624-.266-.622-.267-.62-.27-.622-.272-.619-.273-.618-.276-.617-.276-.617-.28-.615-.28-.615-.284-.614-.284-.612-.287-.612-.288-.61-.29-.61-.29-.608-.294-.607-.296-.607-.297-.604-.3-.605-.3-.604-.303-.601-.303-.602-.307-.6-.309-.598-.308-.598-.312-.598-.313-.595-.316-.595-.317-.595-.318-.59-.32-.594-.323-.59-.324-.59-.325-.587-.327-.588-.33-.586-.332-.585-.332-.584-.334-.583-.336-.581-.339-.581-.339-.58-.34-.578-.343-.577-.346-.576-.346-.576-.348-.575-.35-.572-.352-.571-.353-.571-.354-.57-.358-.568-.358-.566-.36-.566-.36-.566-.365-.562-.365-.562-.367-.563-.368-.56-.37-.56-.373-.557-.373-.555-.375-.556-.376-.555-.379-.553-.38-.552-.382-.55-.381-.549-.385-.549-.387-.547-.389-.545-.388-.545-.392-.544-.394-.542-.394-.54-.397-.54-.397-.539-.399-.537-.402-.537-.402-.535-.404-.533-.405-.532-.408-.531-.409-.529-.41-.53-.413-.526-.414-.527-.414-.525-.418-.523-.417-.521-.421-.522-.42-.52-.424-.518-.424-.516-.426-.517-.428-.514-.43-.513-.43-.511-.431-.512-.435-.51-.435-.507-.438-.506-.438-.505-.44-.504-.44-.503-.444-.5-.444-.502-.445-.497-.448-.498-.449-.496-.45-.494-.451-.494-.453-.493-.455-.489-.457-.49-.457-.488-.46-.486-.46-.486-.462-.484-.464-.482-.465-.48-.467-.481-.467-.477-.47-.477-.47-.476-.472-.474-.474-.473-.476-.47-.475-.471-.479-.469-.479-.467-.48-.465-.483-.463-.484-.464-.484-.462-.487-.46-.487-.458-.49-.457-.49-.455-.493-.455-.492-.452-.495-.451-.495-.45-.498-.448-.5-.447-.5-.446-.501-.443-.503-.443-.505-.442-.506-.44-.506-.437-.508-.437-.51-.434-.51-.435-.513-.431-.513-.431-.517-.43-.516-.427-.517-.426-.52-.425-.52-.422-.52-.423-.524-.42-.525-.418-.524-.416-.527-.416-.528-.414-.53-.413-.53-.41-.532-.41-.533-.408-.536-.406-.535-.406-.538-.402-.539-.402-.538-.4-.542-.397-.542-.398-.544-.395-.543-.394-.547-.392-.547-.391-.547-.389-.55-.387-.551-.385-.553-.385-.553-.382-.554-.382-.556-.38-.557-.376-.559-.377-.559-.375-.56-.373-.563-.37-.562-.37-.564-.368-.566-.366-.566-.365-.57-.363-.568-.363-.57-.36-.57-.357-.573-.356-.574-.355-.575-.354-.576-.351-.577-.35-.578-.347-.58-.348-.58-.344-.582-.343-.583-.342-.584-.34-.586-.339-.587-.335-.586-.334-.59-.334-.59-.331-.589-.33-.593-.328-.593-.325-.593-.326-.596-.322-.597-.32-.596-.32-.599-.318-.6-.315-.601-.315-.602-.312-.603-.31-.603-.309-.605-.308-.607-.305-.606-.304-.609-.301-.608-.3-.61-.298-.612-.297-.614-.295-.613-.293-.614-.291-.615-.288-.617-.288-.618-.287-.619-.282-.619-.283-.622-.28-.62-.28-.624-.275-.623-.276-.624-.273-.627-.271-.626-.27-.628-.267-.63-.266-.628-.264-.63-.262-.633-.261-.632-.257-.634-.258-.636-.254-.635-.254-.636-.25-.637-.249-.64-.247-.639-.245-.64-.244-.641-.242-.643-.24-.644-.237-.644-.237-.644-.234-.646-.233-.648-.23-.647-.228-.65-.227-.649-.223-.65-.224-.652-.221-.652-.218-.653-.218-.655-.215-.656-.213-.656-.211-.656-.21-.658-.206-.66-.207-.659-.202-.66-.201-.662-.2-.661-.197-.663-.196-.665-.195-.665-.19-.664-.191-.668-.188-.667-.186-.668-.184-.67-.182-.669-.179-.671-.177-.672-.177-.671-.174-.674-.172-.674-.17-.675-.168-.675-.165-.677-.164-.676-.162-.678-.16-.68-.158-.679-.155-.681-.154-.68-.151-.684-.15-.681-.149-.684-.145-.685-.144-.685-.142-.687-.138-.685-.138-.688-.136-.689-.133-.688-.131-.69-.13-.69-.126-.69-.124-.693-.125-.693-.12-.692-.118-.695-.118-.694-.114-.697-.113-.695-.11-.697-.108-.697-.107-.7-.104-.7-.1-.698-.101-.7-.097-.703-.096-.7-.093-.704-.093-.702-.088-.704-.087-.705-.085-.706-.084-.705-.08-.706-.078-.707-.077-.71-.073-.708-.073-.709-.07-.709-.067-.71-.066-.711-.063-.713-.062-.712-.06-.714-.056-.712-.054-.714-.053-.716-.05-.716-.047-.716-.046-.715-.044-.718-.041-.719-.04-.717-.037-.72-.034-.72-.032-.72-.031-.72-.03-.721-.025-.723-.005-.14-.082.03-.274.093-.28.092-.282.092-.288.094-.293.09-.297.092-.3.09-.305.09-.31.09-.314.086-.317.087-.322.087-.327.085-.33.084-.335.083-.339.08-.342.08-.346.08-.353.077-.354.075-.36.075-.363.072-.366.071-.372.069-.375.066-.38.067-.382.06-.386.062-.392.06-.394.056-.399.053-.402.053-.406.048-.41.047-.414.045-.418.04-.42.04-.425.035-.428.033-.433.03-.431.026-.223.014-.22.01-.222.012-.223.01-.221.009-.224.008-.225.007-.225.007-.226.007-.229.005-.228.003-.228.003-.229.002-.231.002h-.697l-.234-.004-.235-.003-.237-.003-.235-.005-.239-.006-.238-.006-.239-.009-.24-.008-.24-.01-.242-.01-.242-.013-.244-.013-.244-.014-.245-.015-.246-.016-.245-.017-.247-.019-.249-.018-.249-.02-.249-.021-.252-.022-.25-.024-.252-.024-.253-.027-.254-.026-.254-.029-.253-.029-.258-.029-.255-.032-.258-.033-.259-.034-.259-.034-.259-.037-.26-.036-.261-.04-.261-.038-.264-.041-.263-.043-.264-.044-.264-.045-.266-.046-.266-.047-.267-.048-.268-.05-.267-.05-.27-.053-.269-.055-.27-.054-.272-.057-.27-.058-.282-.06-.296-.066-.304-.071-.301-.075-.3-.079-.299-.08-.296-.083-.295-.087-.293-.09-.291-.092-.29-.096-.288-.099-.286-.102-.285-.104-.283-.107-.28-.111-.279-.113-.276-.115-.276-.12-.273-.12-.27-.123-.27-.128-.268-.13-.265-.131-.264-.135-.261-.138-.261-.14-.257-.14-.256-.146-.254-.146-.252-.15-.249-.152-.249-.155-.245-.157-.244-.158-.242-.162-.24-.164-.237-.165-.235-.169-.235-.17-.232-.172-.23-.174-.227-.177-.226-.18-.224-.18-.221-.182-.22-.184-.218-.188-.217-.187-.213-.191-.211-.191-.211-.194-.208-.196-.206-.198-.203-.2-.203-.2-.2-.202-.199-.204-.196-.206-.194-.208-.193-.208-.19-.211-.19-.212-.187-.213-.186-.216-.182-.217-.183-.218-.178-.218-.18-.221-.175-.222-.174-.223-.174-.225-.17-.225-.169-.228-.168-.229-.166-.228-.163-.232-.162-.232-.162-.233-.159-.234-.156-.236-.157-.236-.154-.238-.153-.239-.15-.24-.15-.24-.148-.242-.145-.242-.145-.244-.143-.245-.141-.246-.14-.247-.14-.249-.136-.247-.137-.25-.133-.25-.132-.251-.132-.253-.13-.252-.129-.254-.126-.254-.126-.255-.124-.256-.123-.257-.121-.258-.121-.257-.118-.259-.117-.259-.118-.26-.114-.261-.114-.261-.11-.263-.113-.262-.11-.263-.108-.264-.108-.266-.106-.264-.103-.266-.104-.265-.103-.266-.1-.268-.1-.267-.1-.268-.097-.27-.097-.268-.095-.27-.094-.269-.094-.27-.092-.27-.09-.271-.09-.273-.09-.27-.086-.272-.087-.272-.085-.273-.085-.273-.082-.274-.084-.273-.08-.274-.08-.275-.08-.274-.078-.274-.077-.275-.077-.274-.075-.274-.075-.276-.073-.275-.071-.276-.072-.276-.07-.274-.07-.276-.068-.276-.068-.277-.067-.276-.066-.276-.065-.276-.065-.276-.063-.276-.061-.276-.061-.276-.062-.276-.06-.276-.057-.275-.058-.276-.058-.28-.113-.546-.107-.55-.106-.551-.102-.549-.1-.549-.096-.547-.094-.545-.09-.545-.087-.544-.085-.542-.082-.54-.078-.539-.077-.536-.075-.536-.07-.533-.07-.532-.066-.528-.063-.527-.062-.524-.06-.522-.057-.52-.055-.514-.052-.515-.05-.51-.05-.507-.045-.503-.045-.501-.042-.496-.041-.494-.04-.49-.037-.485-.034-.482-.034-.48-.032-.473-.031-.469-.029-.465-.027-.46-.026-.455-.024-.452-.024-.446-.022-.441-.02-.435-.019-.431-.019-.426-.017-.42-.015-.424-.009-.269-.006-.281-.004-.28v-.28l.004-.277.006-.28.009-.277.012-.276.015-.278.017-.276.02-.275.025-.276.025-.274.03-.273.031-.272.035-.273.037-.27.04-.272.044-.27.044-.27.048-.27.05-.267.054-.267.056-.266.058-.266.061-.264.063-.264.067-.263.068-.262.07-.261.073-.26.075-.262.078-.257.08-.259.084-.256.083-.257.087-.254.09-.254.09-.254.096-.252.096-.252.097-.249.1-.25.103-.25.104-.246.107-.247.11-.246.108-.244.113-.243.116-.242.115-.242.118-.24.121-.24.123-.24.122-.236.127-.237.127-.237.13-.233.131-.234.133-.233.136-.232.137-.23.138-.23.14-.229.14-.226.144-.227.147-.227.146-.223.148-.225.15-.221.15-.222.154-.22.155-.22.155-.218.158-.218.159-.216.16-.215.162-.215.164-.213.165-.211.167-.211.167-.21.169-.21.17-.208.172-.207.172-.205.176-.206.175-.203.178-.203.177-.203.18-.2.181-.2.18-.198.185-.197.184-.198.186-.196.185-.194.19-.193.189-.192.189-.191.19-.191.193-.19.195-.187.194-.187.196-.186.196-.186.197-.184.2-.182.2-.183.2-.18.201-.18.203-.178.203-.177.204-.178.207-.175.206-.174.208-.174.208-.172.21-.17.209-.17.21-.17.213-.166.21-.167.214-.166.215-.165.214-.164.217-.161.216-.16.217-.16.218-.161.218-.157.22-.157.22-.155.221-.155.222-.153.221-.152.223-.152.224-.15.223-.148.225-.148.227-.147.225-.144.226-.145.227-.142.228-.143.229-.14.228-.14.23-.137.23-.138.23-.137.23-.134.232-.133.232-.133.231-.131.234-.13.233-.13.234-.126.233-.127.236-.125.233-.124.235-.123.237-.12.235-.122.237-.12.237-.117.237-.116.237-.116.238-.114.237-.112.239-.111.238-.11.239-.11.239-.107.24-.108.24-.103.239-.104.24-.104.24-.101.24-.1.24-.098.243-.098.24-.096.242-.094.24-.093.242-.092.242-.09.242-.091.242-.089.242-.085.242-.085.242-.085.242-.082.242-.082.242-.078.242-.079.244-.076.242-.077.242-.073.244-.074.242-.071.242-.07.243-.068.242-.067.242-.066.242-.063.244-.063.242-.062.242-.06.242-.057.242-.056.242-.055.242-.054.242-.052.242-.05.242-.05.24-.046.242-.046.242-.044.24-.043.24-.043.243-.039.24-.037.24-.036.24-.036.241-.032.24-.033.239-.029.24-.027.239-.027.24-.024.239-.024.238-.02.239-.02.237-.018.238-.017.237-.014.239-.011.237-.012.236-.009.237-.007.235-.005.237-.003.236-.002h.235l.235.002.235.005.234.007.233.006.233.01.234.013.233.015.232.015.234.019.231.02.23.023.225.024.225.025.22.026.218.027.22.027.218.03.218.03.219.032.218.033.218.034.216.035.218.036.217.04.216.039.217.04.216.043.217.043.216.046.215.046.216.047.215.05.215.053.214.05.215.055.215.057.213.058.215.06.213.06.213.064.213.064.21.067.214.068.211.07.212.071.21.074.212.076.21.077.21.08.21.082.209.083.208.086.207.087.208.088.208.092.207.094.206.095.204.1.206.098.205.102.203.104.203.106.202.109.201.11.201.113.202.116.199.116.2.12.197.122.198.123.196.126.196.128.194.13.194.132.193.136.172.121-5.937 8.325-.13-.092-.11-.076-.111-.075-.111-.075-.111-.074-.11-.071-.113-.07-.113-.068-.112-.068-.113-.067-.114-.065-.114-.064-.114-.062-.116-.063-.116-.06-.116-.06-.117-.059-.118-.056-.12-.056-.119-.056-.12-.055-.12-.053-.123-.053-.122-.05-.123-.052-.124-.05-.127-.049-.126-.047-.126-.046-.128-.046-.13-.045-.129-.044-.13-.044-.134-.043-.133-.04-.134-.042-.135-.04-.136-.04-.138-.037-.138-.038-.14-.036-.142-.035-.143-.036-.143-.034-.145-.034-.145-.033-.148-.03-.148-.033-.15-.029-.15-.03-.152-.028-.153-.029-.155-.027-.157-.026-.157-.025-.158-.026-.16-.024-.16-.023-.164-.023-.164-.022-.165-.02-.165-.02-.17-.021-.163-.019-.143-.015-.138-.014-.14-.012-.14-.01-.142-.01-.144-.009-.144-.007-.147-.006-.148-.005-.149-.004-.15-.003-.151-.002h-.154l-.153.002-.157.001-.155.004-.158.005-.159.005-.16.007-.162.008-.162.01-.163.013-.164.012-.165.013-.167.014-.167.017-.169.017-.17.019-.17.02-.171.02-.172.024-.174.024-.174.024-.176.027-.175.028-.177.029-.178.03-.177.03-.179.035-.179.034-.18.034-.183.038-.18.037-.183.04-.184.04-.182.043-.184.042-.186.045-.186.046-.185.046-.186.048-.188.049-.187.051-.187.051-.19.055-.187.054-.19.055-.19.056-.19.06-.19.058-.191.061-.19.061-.192.063-.192.065-.191.065-.193.066-.192.069-.193.068-.193.07-.192.071-.194.073-.193.074-.194.075-.193.076-.194.077-.194.078-.193.079-.194.082-.194.081-.195.082-.194.085-.193.086-.194.085-.194.087-.194.088-.193.09-.194.091-.193.092-.194.092-.193.096-.194.093-.192.097-.193.096-.193.099-.192.098-.191.101-.193.1-.19.103-.193.104-.191.104-.19.105-.19.106-.19.107-.19.11-.19.109-.188.11-.188.111-.187.113-.19.112-.185.114-.188.116-.185.116-.186.116-.184.117-.186.12-.184.12-.182.12-.184.121-.183.123-.18.122-.181.125-.18.124-.181.126-.18.126-.176.128-.18.128-.177.13-.175.13-.176.13-.175.132-.174.13-.172.134-.172.134-.172.135-.17.135-.171.136-.169.138-.169.136-.167.14-.167.138-.165.14-.164.141-.163.14-.164.143-.162.142-.16.143-.16.145-.159.143-.158.146-.155.145-.157.147-.153.146-.155.149-.152.148-.152.148-.15.15-.148.15-.148.15-.147.152-.146.151-.143.152-.144.153-.143.154-.14.153-.14.155-.139.155-.136.155-.137.155-.134.157-.133.157-.131.157-.132.157-.13.158-.127.159-.126.158-.126.159-.125.16-.12.16-.123.16-.12.16-.117.16-.118.162-.116.162-.114.162-.112.162-.111.164-.11.162-.108.163-.108.164-.104.163-.104.164-.102.164-.1.165-.1.165-.098.164-.095.165-.096.165-.092.166-.092.165-.09.167-.089.165-.087.167-.083.166-.084.167-.083.167-.08.165-.079.167-.076.167-.075.167-.075.167-.072.167-.07.167-.07.169-.066.167-.067.167-.063.167-.063.168-.06.167-.06.167-.057.17-.055.166-.054.169-.053.167-.05.169-.049.167-.046.168-.046.167-.044.17-.041.168-.04.167-.04.169-.036.168-.036.167-.034.169-.03.167-.031.169-.029.168-.026.17-.025.166-.022.169-.022.169-.02.168-.018.169-.015.169-.016.168-.012.17-.012.168-.008.169-.007.17-.005.169-.003.168-.004.17v.17l.004.17.003.17.005.181.015.382.016.398.017.404.019.408.018.412.02.418.023.42.024.427.024.429.025.433.028.438.028.441.031.447.03.448.035.452.034.455.036.458.039.462.04.465.04.467.044.47.045.472.047.476.05.477.051.479.053.48.054.484.057.486.06.486.06.489.064.489.066.49.068.493.07.495.072.494.075.494.078.496.08.496.082.496.085.497.087.496.09.498.092.496.096.496.099.497.1.498.051.245.052.247.052.247.055.248.053.245.056.247.054.246.057.247.058.245.058.245.058.246.06.244.059.245.06.244.06.243.064.242.063.244.063.242.065.242.064.24.067.24.066.24.067.241.068.24.07.239.07.237.07.238.071.237.072.236.073.236.073.234.075.235.075.234.075.233.079.232.076.232.079.23.08.23.078.228.082.228.082.229.082.226.083.225.084.225.085.224.085.223.087.223.087.22.089.221.088.22.09.218.09.217.093.216.092.215.092.215.094.213.095.211.095.211.098.21.097.21.097.207.099.207.099.204.1.205.102.202.103.202.102.2.104.2.104.198.105.196.106.196.107.194.11.193.107.19.11.191.11.188.11.187.113.186.112.184.115.184.114.18.114.181.116.18.117.176.118.176.118.176.119.172.12.172.12.169.123.168.12.167.125.166.123.163.124.162.127.16.126.16.127.157.128.157.128.153.13.152.13.152.13.15.132.148.132.145.133.145.135.143.135.141.134.14.137.138.138.136.138.133.138.135.14.131.14.13.14.127.144.127.143.124.143.123.145.12.145.12.145.118.148.117.147.114.15.113.148.11.151.111.15.108.154.105.153.104.153.104.156.1.155.1.156.098.159.096.158.095.16.092.163.092.161.089.162.087.166.087.165.083.165.084.169.082.167.078.17.078.172.075.173.075.173.072.174.072.177.07.178.066.179.066.179.063.182.063.182.06.184.06.188.056.187.055.19.054.189.051.192.05.194.047.195.046.206.046.221.05.23.047.23.048.229.046.227.046.228.045.225.042.227.043.224.04.224.04.223.039.223.038.223.035.22.036.222.034.22.034.218.033.22.03.216.031.218.029.217.029.214.027.215.026.215.025.213.026.213.022.211.024.212.02.21.02.21.021.208.019.21.017.208.017.206.015.205.016.206.013.204.014.205.014.203.01.202.012.201.008.202.01.199.007.2.009.199.007.197.005.196.005.198.003.194.004.195.003.194.002h.577l.191-.002.191-.002.19-.001.189-.004.187-.005.188-.005.185-.005.186-.005.184-.007.184-.008.184-.009.18-.008.183-.009.176-.01.364-.024.357-.024.352-.027.35-.03.346-.032.344-.034.34-.035.335-.04.334-.039.33-.042.328-.045.322-.046.32-.047.317-.052.314-.05.308-.054.307-.054.303-.056.3-.058.297-.058.293-.062.288-.06.286-.064.281-.065.28-.064.274-.067.271-.066.27-.069.263-.068.26-.07.257-.071.254-.07.249-.072.247-.073.242-.071.238-.074.234-.075.231-.073.227-.073.223-.075.22-.075.215-.074.211-.075.208-.075.203-.073.201-.075.194-.073.193-.073.187-.074.184-.073.181-.071.176-.072.172-.072.167-.07.163-.07.159-.068.155-.068.152-.068.146-.065.142-.064.14-.065.132-.063.13-.062.12-.057.244-.118.22-.11.203-.105.184-.095.167-.09.148-.08.132-.074.112-.063.094-.055.073-.044.05-.029.068-.042 7.846-4.97.017 9.976.001.697.007.696.007.693.01.694.012.694.014.693.015.692.019.692.02.692.024.69.024.69.027.69.03.689.03.688.034.689.034.687.038.686.04.687.041.685.045.685.046.684.048.685.049.681.053.684.054.682.057.681.057.68.062.68.061.68.065.678.068.679.068.678.07.676.073.677.075.675.077.675.08.675.082.674.082.674.085.67.089.672.088.672.092.67.092.67.096.67.097.667.1.668.1.666.105.667.106.666.107.665.109.664.11.663.115.663.116.663.117.661.12.662.12.66.123.659.127.657.126.66.13.656.13.656.133.656.137.655.136.654.14.654.141.653.142.651.144.651.149.651.148.65.15.649.153.649.155.646.155.647.159.646.16.645.164.645.163.643.166.642.168.643.17.64.171.641.174.64.176.638.177.638.179.637.182.638.182.635.186.634.186.634.19.634.19.632.193.63.194.631.196.63.197.63.2.627.2.627.205.627.205.626.208.623.208.624.211.624.213.622.215.62.216.62.218.62.22.62.222.616.223.617.225.615.228.616.229.613.23.614.233.613.234.61.237.61.236.61.24.609.243.608.242.607.245.605.247.605.249.605.249.603.252.602.254.601.256.6.257.6.259.598.26.597.263.596.264.596.266.595.268.593.269.592.27.593.274.59.274.589.276.59.278.586.28.588.282.584.283.585.285.584.286.583.288.581.29.581.291.58.293.578.295.577.297.578.298.574.3.575.301.574.302.573.305.57.307.571.308.57.31.567.31.567.314.566.315.566.316.564.318.563.319.562.322.56.322.56.324.558.327.558.327.557.33.556.33.553.332.554.334.552.336.55.337.551.34.55.34.546.341.547.344.545.345.544.347.544.348.542.35.54.35.54.353.539.355.538.356.535.358.535.36.535.359.532.363.532.363.532.366.528.367.528.368.528.37.525.371.525.373.523.373.524.377.521.377.52.38.518.38.518.381.516.384.515.385.515.385.513.389.51.388.51.392.51.392.508.394.506.395.506.397.505.397.502.4.501.401.501.403.5.403.497.406.498.407.494.408.494.41.493.411.492.412.491.415.49.415.487.416.485.42.486.419.484.42.482.423.482.423.481.426.479.426.477.428.476.43.475.43.474.433.472.433.47.435.47.436.467.438.467.44.467.44.464.44.463.444.46.444.46.447.46.446.458.449.456.45.455.451.454.452.451.455.452.455.448.456.448.457.447.46.444.46.445.462.442.462.441.465.44.466.438.466.438.47.434.468.435.47.43.474.434.472.43.475.427.476.428.477.424.479.424.479.423.48.421.483.42.484.418.485.416.486.416.487.414.488.413.49.41.491.411.491.407.494.408.495.403.496.404.497.403.498.4.5.399.5.399.503.395.503.395.504.394.504.39.508.39.508.389.508.389.511.385.511.383.513.384.513.38.515.38.516.378.518.377.519.375.52.373.52.371.52.37.524.37.525.366.525.367.526.363.528.363.529.36.53.359.53.358.533.356.532.354.535.355.535.35.537.35.537.348.538.347.54.345.542.344.542.34.542.342.545.339.546.335.545.336.547.334.549.333.55.33.55.327.551.328.554.325.554.326.554.322.557.32.556.319.559.317.559.315.559.314.562.313.562.31.563.309.564.306.566.307.565.304.568.301.567.302.57.298.57.297.571.296.573.293.573.292.574.291.574.288.578.286.576.285.578.285.579.28.581.28.581.28.581.276.583.274.585.273.584.27.586.27.587.27.588.265.588.264.59.263.59.26.592.258.593.257.593.256.593.254.597.252.596.25.596.247.599.248.598.243.6.244.6.24.601.24.603.237.604.236.603.233.605.232.607.232.606.228.609.225.608.225.608.223.612.222.61.218.612.218.614.215.613.214.615.212.616.21.615.207.618.206.617.205.619.203.62.2.62.199.623.197.622.194.622.193.623.19.626.19.625.188.626.185.627.184.627.183.629.179.629.177.63.177.63.174.633.172.632.17.634.167.634.167.634.164.636.164.637.16.636.158.639.157.637.154.64.153.64.15.64.15.643.146.643.145.642.143.644.14.644.14.646.136.646.135.646.133.648.131.647.13.65.126.649.126.65.122.652.121.65.12.653.116.653.115.655.113.654.11.654.11.656.107.657.104.657.102.658.1.658.1.66.097.66.094.66.093.66.09.663.09.66.084.664.086.664.081.665.08.665.079.666.075.666.075.667.072.668.07.668.068.668.064.67.063.67.062.669.06.671.056.672.056.673.053.673.05.673.049.675.046.675.044.675.042.675.041.676.038.679.036.676.034.678.03.68.031.679.027.68.024.68.024.681.02.682.02.682.015.683.015.683.012.684.01.683.007.685.005.685.003.695.002-.017 10.225z" fill="#fff"/><path d="M377.572 504.76l-.017-10.225.651-.002.643-.003.642-.005.641-.007.64-.01.642-.012.64-.014.64-.017.639-.019.639-.02.637-.022.637-.026.636-.026.637-.03.636-.03.636-.033.634-.036.634-.038.634-.04.632-.041.634-.045.63-.046.633-.047.63-.052.63-.05.63-.055.63-.058.629-.058.627-.061.627-.062.627-.065.627-.068.626-.068.625-.071.624-.074.624-.075.623-.076.622-.08.624-.082.62-.084.623-.085.62-.087.618-.09.62-.09.62-.094.616-.097.617-.098.617-.098.617-.103.615-.104.615-.105.614-.108.613-.11.614-.111.612-.114.612-.116.61-.118.61-.12.61-.122.608-.123.609-.126.608-.127.607-.13.606-.131.605-.135.605-.134.605-.138.604-.14.603-.142.601-.143.602-.145.602-.148.6-.148.6-.152.597-.153.599-.155.596-.157.598-.159.595-.161.595-.162.594-.166.595-.167.593-.167.592-.17.591-.174.591-.174.59-.175.59-.18.59-.178.587-.183.586-.184.587-.184.586-.187.584-.19.585-.192.583-.192.583-.195.58-.197.582-.198.581-.201.58-.203.579-.204.578-.207.576-.208.577-.21.575-.21.576-.213.572-.215.574-.218.573-.218.571-.222.57-.222.572-.224.567-.227.57-.227.567-.23.566-.232.567-.233.564-.235.564-.237.564-.239.563-.24.56-.244.563-.243.559-.246.559-.247.559-.25.557-.251.556-.254.557-.254.554-.257.554-.257.553-.261.553-.26.55-.265.55-.266.55-.266.55-.269.547-.271.547-.273.547-.272.543-.276.546-.278.543-.278.542-.281.542-.283.54-.285.54-.286.54-.286.536-.29.537-.291.537-.293.535-.294.533-.296.534-.298.531-.3.532-.3.53-.304.53-.305.528-.305.529-.308.526-.309.525-.311.525-.314.523-.314.523-.315.522-.319.52-.318.52-.322.52-.322.517-.324.516-.327.515-.328.515-.328.514-.331.513-.332.512-.334.51-.336.51-.338.51-.339.506-.339.508-.342.504-.345.507-.344.502-.347.503-.348.501-.35.501-.352.5-.353.499-.354.496-.357.497-.358.494-.36.495-.36.494-.362.49-.364.491-.365.491-.368.49-.368.487-.37.487-.372.486-.375.484-.373.484-.376.482-.379.48-.38.481-.38.48-.381.476-.386.477-.385.476-.387.475-.388.474-.39.472-.39.472-.394.469-.394.47-.397.467-.397.467-.399.465-.4.466-.4.463-.405.462-.405.462-.406.458-.407.46-.41.457-.41.457-.412.455-.413.455-.416.451-.415.452-.418.452-.42.448-.42.448-.423.448-.422.445-.426.445-.426.443-.428.443-.43.441-.43.44-.432.438-.433.438-.434.436-.437.435-.438.433-.438.433-.44.43-.442.432-.443.428-.443.427-.447.426-.448.426-.448.425-.45.422-.452.421-.451.42-.454.419-.457.417-.456.416-.457.416-.46.414-.46.412-.462.411-.464.41-.465.408-.465.407-.467.408-.469.404-.47.404-.472.402-.472.4-.474.4-.475.398-.476.397-.479.395-.479.396-.48.392-.48.391-.485.39-.484.391-.485.387-.486.387-.49.385-.488.383-.491.382-.49.382-.493.378-.495.378-.495.379-.498.375-.498.375-.499.371-.5.372-.502.37-.503.37-.504.366-.505.366-.507.365-.508.363-.508.36-.511.362-.512.358-.513.358-.513.356-.514.355-.517.354-.518.351-.518.351-.52.35-.521.347-.521.346-.524.344-.525.345-.524.34-.529.341-.526.34-.53.337-.53.337-.532.334-.532.333-.535.332-.533.33-.537.33-.537.327-.538.325-.539.326-.542.322-.542.322-.542.32-.543.319-.546.317-.545.315-.547.314-.549.313-.55.31-.549.31-.552.309-.552.305-.554.305-.556.305-.555.302-.557.3-.56.3-.558.296-.56.297-.562.293-.56.293-.564.291-.565.29-.565.288-.566.286-.568.287-.569.283-.569.282-.57.28-.574.28-.572.275-.573.277-.576.274-.576.273-.576.27-.577.27-.58.267-.58.266-.58.266-.582.263-.582.26-.585.261-.584.257-.585.258-.588.255-.586.253-.59.252-.59.25-.59.249-.592.247-.591.244-.594.244-.594.242-.597.24-.596.238-.597.239-.598.235-.6.234-.6.231-.601.23-.602.23-.603.227-.603.225-.605.223-.605.224-.607.22-.607.218-.61.218-.608.214-.61.215-.61.211-.614.21-.612.21-.613.206-.615.206-.615.203-.617.201-.617.201-.619.198-.618.197-.62.195-.621.192-.622.193-.622.19-.622.187-.626.187-.623.184-.627.182-.626.181-.629.18-.627.178-.629.175-.63.174-.63.172-.633.17-.632.17-.633.167-.634.165-.635.163-.636.162-.635.159-.638.158-.639.157-.637.155-.641.152-.64.151-.642.149-.64.146-.643.147-.644.143-.644.141-.646.142-.644.138-.648.136-.647.135-.648.131-.65.131-.649.13-.649.128-.65.124-.654.124-.652.121-.653.12-.653.117-.656.118-.654.114-.656.113-.656.109-.658.109-.658.107-.66.104-.659.104-.66.1-.66.1-.664.097-.66.095-.664.094-.664.092-.665.09-.665.087-.666.087-.665.083-.668.082-.668.08-.668.079-.668.076-.67.075-.67.072-.67.071-.674.069-.671.066-.673.065-.674.063-.673.061-.675.058-.676.058-.677.055-.676.053-.677.05-.678.05-.678.048-.679.044-.68.043-.68.042-.681.04-.682.037-.681.034-.682.034-.684.03-.683.03-.685.027-.685.026-.685.023-.687.02-.687.021-.686.017-.687.016-.689.012-.688.012-.69.008-.69.009-.69.005-.691.001-.692.016-10.249 7.95 5.314.063.04.042.026.067.043.085.053.104.061.12.07.136.078.155.087.17.094.188.102.202.108.227.116.11.056.12.06.125.06.127.064.133.063.135.065.141.066.144.067.146.066.152.068.157.07.158.07.162.07.167.07.172.071.174.072.177.071.182.074.186.071.188.074.192.073.198.073.2.073.202.072.208.073.211.073.213.072.218.072.222.073.225.07.227.071.231.07.236.07.238.07.242.068.246.067.248.066.253.067.254.064.259.063.262.063.264.062.27.061.27.06.275.058.278.056.28.054.285.053.288.053.292.05.293.049.296.048.3.044.304.044.306.041.309.04.313.037.316.036.318.034.32.03.326.03.327.027.331.024.337.022.164.008.167.01.17.009.17.008.17.007.172.007.172.007.174.005.172.005.175.004.176.003.175.002.176.003h.177l.18.002.178-.002h.179l.179-.002.18-.003.183-.003.182-.004.183-.005.184-.005.184-.007.185-.007.186-.008.186-.009.187-.01.188-.01.189-.01.19-.014.188-.012.191-.014.193-.015.19-.015.193-.017.195-.017.194-.02.194-.018.196-.02.196-.02.198-.023.197-.024.198-.024.198-.024.2-.025.2-.027.201-.028.201-.029.203-.03.205-.03.203-.032.204-.034.205-.032.206-.036.206-.036.208-.037.208-.038.208-.039.21-.039.209-.043.21-.04.21-.045.214-.044.211-.046.213-.046.215-.048.206-.048.188-.044.177-.044.177-.046.176-.048.172-.05.172-.052.172-.053.169-.055.168-.056.167-.058.166-.06.163-.062.164-.063.162-.065.16-.067.16-.068.159-.07.156-.071.159-.074.153-.075.155-.076.154-.079.153-.08.15-.082.152-.083.15-.085.148-.087.148-.089.147-.088.146-.092.145-.094.145-.096.143-.097.143-.097.142-.1.141-.103.142-.104.14-.104.137-.107.139-.109.138-.11.138-.113.134-.113.137-.116.134-.117.135-.12.133-.119.133-.123.13-.124.132-.126.131-.126.13-.13.13-.13.129-.134.128-.134.128-.135.126-.138.126-.14.124-.141.125-.142.124-.145.123-.146.122-.147.123-.15.121-.15.12-.153.12-.155.118-.155.12-.157.117-.16.116-.16.117-.162.114-.164.116-.165.114-.167.113-.169.112-.17.113-.172.11-.173.111-.173.11-.178.109-.177.109-.179.107-.18.107-.183.106-.182.106-.186.104-.186.104-.187.102-.19.102-.19.102-.19.1-.194.101-.194.1-.196.098-.196.097-.2.097-.199.096-.199.095-.203.096-.203.093-.204.094-.205.092-.206.09-.208.093-.21.09-.209.088-.211.09-.211.086-.215.087-.213.087-.217.085-.214.084-.219.085-.218.082-.22.083-.22.08-.22.082-.222.08-.224.078-.223.079-.225.078-.227.077-.226.077-.227.075-.228.075-.229.073-.23.073-.23.073-.231.072-.23.07-.234.07-.233.07-.234.068-.235.068-.235.068-.235.067-.237.064-.237.065-.239.065-.237.063-.238.063-.24.063-.24.061-.24.06-.24.06-.242.06-.242.059-.242.056-.242.058-.243.056-.242.057-.244.054-.244.055-.243.054-.246.053-.244.051-.242.104-.494.099-.492.099-.493.094-.492.092-.494.09-.495.087-.494.085-.494.082-.494.08-.494.078-.495.075-.494.074-.492.07-.493.068-.49.066-.492.065-.489.061-.489.06-.487.058-.486.056-.484.053-.482.05-.482.052-.48.048-.475.046-.475.044-.472.043-.47.04-.467.04-.466.037-.462.036-.458.034-.457.033-.453.03-.448.03-.447.028-.443.027-.44.026-.434.024-.431.024-.428.022-.423.02-.419.019-.414.019-.41.017-.406.017-.4.015-.396.014-.38.005-.182.003-.173.002-.17v-.172l-.002-.17-.003-.17-.005-.171-.007-.17-.008-.171-.01-.17-.013-.17-.013-.17-.016-.17-.017-.169-.018-.17-.02-.17-.023-.17-.024-.168-.025-.17-.028-.17-.029-.168-.029-.169-.032-.17-.034-.169-.034-.167-.038-.17-.037-.169-.041-.169-.041-.168-.043-.167-.046-.17-.046-.168-.047-.168-.05-.168-.05-.168-.054-.167-.054-.169-.056-.169-.057-.165-.06-.169-.059-.168-.063-.167-.063-.167-.065-.167-.066-.167-.07-.167-.07-.167-.07-.166-.073-.167-.075-.167-.075-.165-.079-.167-.078-.165-.08-.166-.082-.165-.083-.165-.084-.166-.087-.165-.087-.163-.09-.166-.09-.163-.092-.164-.094-.164-.094-.163-.097-.164-.097-.162-.099-.163-.1-.162-.103-.162-.102-.162-.104-.16-.107-.162-.106-.16-.109-.16-.11-.16-.112-.16-.112-.16-.113-.158-.115-.158-.116-.159-.118-.158-.12-.157-.118-.157-.123-.157-.121-.155-.125-.156-.124-.156-.126-.153-.128-.155-.13-.153-.127-.154-.131-.151-.133-.154-.133-.151-.133-.15-.137-.152-.136-.148-.138-.15-.138-.149-.138-.148-.141-.148-.142-.147-.143-.148-.143-.145-.145-.145-.145-.145-.146-.144-.149-.144-.148-.143-.15-.141-.15-.142-.152-.141-.151-.14-.154-.14-.153-.138-.155-.138-.155-.138-.157-.134-.157-.137-.158-.136-.159-.133-.158-.134-.162-.133-.16-.132-.162-.13-.162-.132-.164-.13-.163-.127-.166-.13-.165-.126-.165-.126-.167-.126-.167-.125-.169-.124-.167-.123-.169-.122-.17-.121-.17-.121-.17-.12-.171-.119-.172-.118-.173-.117-.172-.116-.174-.114-.173-.114-.174-.115-.174-.112-.176-.11-.175-.112-.176-.109-.175-.109-.177-.107-.176-.106-.177-.105-.177-.106-.178-.102-.178-.104-.178-.1-.179-.101-.179-.101-.179-.099-.178-.097-.18-.097-.178-.096-.181-.093-.179-.094-.18-.092-.181-.09-.18-.09-.18-.091-.18-.087-.18-.087-.18-.087-.18-.083-.181-.084-.18-.083-.182-.082-.18-.08-.18-.078-.18-.079-.18-.077-.18-.075-.18-.075-.179-.073-.18-.073-.18-.07-.178-.07-.18-.07-.178-.066-.18-.067-.177-.066-.178-.063-.178-.063-.177-.062-.177-.06-.177-.059-.176-.058-.177-.058-.176-.054-.174-.055-.175-.053-.174-.052-.174-.052-.174-.049-.172-.048-.173-.047-.17-.045-.173-.046-.17-.042-.17-.043-.17-.04-.17-.04-.167-.038-.169-.037-.167-.036-.165-.034-.165-.034-.166-.03-.163-.031-.164-.031-.162-.027-.162-.028-.16-.025-.16-.024-.16-.024-.159-.022-.156-.02-.157-.02-.155-.018-.154-.017-.153-.015-.153-.014-.152-.014-.15-.012-.15-.01-.148-.01-.147-.008-.146-.007-.145-.005-.143-.006-.144-.003-.141-.002-.14-.001-.14.001h-.136l-.136.004-.137.003-.132.005-.133.007-.132.007-.13.008-.129.009-.126.01-.126.012-.124.014-.125.013-.255.031-.254.032-.25.036-.248.036-.25.04-.115.02-.119.02-.12.022-.117.02-.117.023-.116.022-.116.024-.114.024-.113.024-.114.023-.11.026-.113.026-.11.027-.108.025-.11.028-.108.027-.108.029-.105.029-.106.029-.106.03-.102.03-.104.03-.102.033-.102.032-.103.032-.1.033-.1.034-.098.034-.099.034-.099.036-.097.036-.095.035-.096.038-.095.037-.095.04-.094.037-.094.04-.092.04-.094.041-.092.04-.09.043-.092.043-.09.043-.09.044-.09.044-.088.045-.089.046-.088.047-.089.046-.087.05-.087.047-.087.05-.086.051-.087.051-.086.051-.085.053-.085.055-.085.054-.085.055-.086.056-.083.056-.085.058-.084.06-.085.06-.082.06-.083.06-.086.063-.081.064-.084.064-.083.067-.084.066-.082.068-.083.069-.084.07-.081.071-.084.073-.083.074-.082.073-.084.077-.082.076-.083.079-.082.08-.083.08-.082.083-.084.082-.083.085-.082.087-.083.087-.084.089-.082.09-.083.092-.084.094-.082.095-.083.096-.084.099-.083.098-.084.1-.083.103-.084.104-.083.106-.084.107-.083.108-.084.112-.083.11-.084.115-.085.116-.083.116-.084.119-.083.121-.086.123-.083.122-.084.127-.085.127-.083.13-.086.131-.083.133-.085.135-.092.15-8.702-5.37.108-.174.117-.188.118-.185.117-.183.12-.182.119-.182.12-.18.12-.177.121-.177.123-.175.12-.172.125-.173.123-.17.126-.17.125-.167.126-.166.126-.165.13-.164.127-.161.128-.16.13-.16.13-.158.132-.156.131-.155.133-.154.133-.152.133-.15.135-.148.136-.148.136-.147.137-.143.138-.145.138-.141.14-.14.14-.14.139-.136.141-.136.142-.133.143-.135.143-.131.145-.13.145-.127.145-.128.146-.125.147-.124.148-.123.148-.12.148-.122.15-.117.15-.116.152-.116.152-.114.151-.11.154-.113.153-.11.154-.107.155-.105.155-.104.155-.104.157-.103.156-.098.159-.1.158-.098.157-.096.16-.093.159-.094.16-.09.16-.09.162-.09.162-.086.162-.085.162-.084.162-.083.163-.08.164-.08.163-.079.164-.077.165-.075.164-.073.165-.073.167-.072.166-.07.165-.068.167-.068.167-.065.167-.065.167-.063.167-.061.169-.061.167-.06.168-.058.17-.056.166-.055.169-.054.17-.053.169-.053.169-.05.17-.049.169-.05.17-.045.17-.046.171-.046.169-.043.17-.042.17-.043.173-.04.17-.038.17-.04.173-.037.17-.036.17-.036.173-.034.172-.032.17-.034.172-.03.172-.032.172-.028.178-.031.339-.053.344-.053.346-.048.346-.044.348-.042.221-.026.222-.022.223-.02.225-.02.223-.015.223-.015.225-.012.225-.01.225-.009.225-.005.225-.005.227-.002.226-.001.225.001.227.004.227.007.226.006.229.009.226.01.229.014.226.013.229.017.228.017.229.02.228.023.228.022.229.026.23.027.228.027.23.031.228.032.23.033.23.036.229.035.23.04.23.039.23.04.23.045.23.044.232.046.23.048.23.05.23.05.232.053.23.053.23.056.232.057.23.06.232.059.23.061.231.063.23.065.23.065.232.068.23.068.232.07.23.072.23.073.232.075.23.075.23.078.232.079.23.08.23.082.23.081.23.084.23.087.23.087.23.087.229.09.23.09.228.092.23.094.229.095.228.098.23.097.227.099.228.1.228.1.229.105.226.104.229.104.226.107.227.107.227.11.226.11.225.113.225.112.227.114.225.116.225.116.223.118.223.119.225.12.224.122.223.123.221.124.224.124.221.128.22.126.222.13.22.13.22.13.219.133.218.133.22.135.218.136.218.138.217.138.216.14.217.14.214.141.215.144.215.144.213.145.213.147.213.146.213.15.211.149.21.151.211.152.208.153.21.154.208.156.207.156.207.158.206.159.206.16.203.16.204.162.203.163.203.164.201.165.201.167.2.167.199.169.2.169.197.17.196.172.196.174.194.174.194.174.195.177.192.177.191.177.19.18.19.18.19.18.185.183.188.184.185.184.184.186.184.186.183.187.182.19.18.188.18.191.179.193.175.192.177.193.174.196.174.196.174.196.17.198.17.199.171.2.167.2.167.202.165.204.166.203.162.204.162.207.161.207.159.208.158.21.157.21.155.21.154.212.151.213.152.213.15.217.148.214.147.219.145.218.145.218.141.22.141.221.14.222.138.223.137.223.134.225.133.225.131.229.13.226.13.229.125.23.125.231.124.232.121.232.121.233.118.236.116.235.114.237.114.236.11.237.11.24.107.24.106.241.102.244.102.242.101.244.097.245.096.245.093.248.092.247.09.248.088.25.085.25.083.25.082.252.08.253.077.254.075.255.073.254.07.257.068.256.067.26.063.258.061.26.06.26.056.259.054.262.053.263.05.264.047.264.045.264.042.266.04.266.037.266.034.267.032.27.031.267.027.271.024.27.022.269.02.272.016.271.014.273.01.273.009.272.005.275.003.274v.274l-.003.275-.005.276-.009.266-.015.42-.016.417-.017.422-.018.428-.02.431-.02.438-.022.441-.022.449-.025.451-.026.457-.027.462-.028.465-.03.469-.033.473-.032.48-.034.48-.038.486-.037.489-.041.492-.04.496-.045.501-.045.501-.047.506-.05.51-.05.511-.055.515-.057.516-.056.52-.061.523-.061.523-.065.527-.067.528-.07.532-.071.531-.075.534-.077.537-.08.537-.082.538-.085.54-.087.54-.09.544-.094.544-.095.543-.1.544-.101.545-.104.547-.11.547-.11.546-.114.543-.058.276-.06.275-.061.274-.06.273-.063.274-.061.273-.065.274-.063.273-.067.273-.064.272-.069.275-.066.272-.07.273-.07.273-.07.272-.071.271-.072.273-.075.273-.073.27-.075.272-.077.27-.076.273-.079.27-.08.27-.08.27-.08.269-.082.27-.083.27-.086.268-.085.269-.085.267-.087.268-.089.268-.09.267-.09.266-.092.266-.092.266-.094.264-.095.266-.096.262-.097.264-.099.264-.099.263-.1.26-.102.263-.103.26-.104.262-.105.259-.108.259-.107.259-.11.257-.11.257-.11.256-.113.256-.114.255-.116.254-.116.254-.118.254-.119.252-.121.25-.12.251-.125.25-.125.25-.126.247-.126.248-.13.246-.129.245-.133.246-.131.243-.135.244-.136.242-.138.24-.138.24-.14.24-.143.238-.143.237-.145.235-.147.235-.148.233-.148.234-.152.232-.153.23-.154.23-.156.228-.157.227-.16.226-.16.224-.162.223-.166.223-.165.22-.169.22-.168.218-.17.218-.175.215-.174.215-.177.21-.177.212-.18.21-.183.21-.184.206-.184.206-.19.203-.188.202-.191.2-.193.2-.194.197-.198.194-.198.194-.2.193-.203.19-.205.188-.206.188-.208.184-.211.182-.212.18-.214.18-.217.177-.218.176-.22.172-.221.172-.225.169-.225.165-.229.165-.23.162-.233.16-.234.157-.235.155-.238.153-.24.152-.243.148-.243.145-.246.143-.249.142-.248.138-.253.136-.253.133-.254.13-.26.127-.258.127-.261.122-.263.12-.265.117-.268.114-.268.111-.27.11-.273.105-.275.102-.274.1-.278.096-.28.094-.28.092-.283.087-.285.085-.286.082-.288.078-.288.077-.292.071-.284.069-.266.06-.26.057-.255.058-.257.055-.256.052-.255.053-.254.051-.254.052-.254.047-.252.048-.253.046-.25.044-.25.045-.251.042-.249.041-.249.04-.247.038-.247.038-.247.036-.245.034-.246.034-.243.032-.244.033-.244.03-.242.03-.24.027-.24.027-.24.025-.241.026-.239.022-.236.024-.24.02-.234.02-.235.02-.236.018-.235.017-.232.016-.233.015-.232.014-.232.013-.23.012-.228.01-.228.01-.229.01-.228.008-.225.007-.227.005-.225.005-.223.005-.223.002-.223.003h-.222l-.22.002-.22-.002-.22-.002-.218-.001-.218-.004-.216-.003-.215-.005-.216-.007-.215-.007-.211-.007-.213-.008-.213-.009-.21-.01-.211-.012-.208-.01-.215-.014-.409-.027-.409-.029-.407-.034-.404-.036-.4-.037-.398-.043-.393-.044-.389-.046-.387-.05-.381-.053-.379-.054-.375-.056-.371-.058-.368-.062-.365-.063-.36-.064-.356-.069-.352-.068-.35-.071-.346-.074-.34-.073-.338-.077-.332-.076-.331-.08-.325-.08-.323-.082-.317-.082-.315-.085-.31-.085-.305-.087-.302-.087-.298-.089-.295-.089-.29-.09-.286-.09-.28-.092-.279-.092-.272-.092-.27-.092-.122-.045-.024.67-.026.716-.029.716-.03.714-.033.714-.034.714-.037.712-.04.712-.04.711-.043.71-.046.711-.046.711-.05.709-.05.709-.055.707-.055.707-.058.708-.06.705-.06.706-.064.703-.066.706-.067.702-.07.704-.071.702-.075.702-.075.7-.078.701-.079.699-.082.698-.085.7-.085.696-.087.697-.09.697-.092.695-.094.696-.095.693-.1.694-.098.692-.102.693-.104.69-.106.693-.107.69-.11.688-.112.689-.112.688-.116.687-.118.685-.12.687-.12.685-.123.683-.126.684-.128.683-.128.682-.13.681-.134.68-.134.68-.138.679-.138.678-.14.678-.143.677-.145.674-.147.675-.148.675-.15.673-.152.673-.153.672-.157.671-.157.67-.16.67-.162.67-.163.666-.166.668-.167.666-.168.665-.17.665-.173.664-.175.663-.176.661-.179.663-.18.66-.181.66-.184.659-.186.658-.187.656-.19.656-.192.656-.193.654-.194.655-.196.65-.2.653-.199.651-.202.65-.205.649-.204.65-.208.647-.21.646-.211.646-.213.644-.215.644-.216.642-.219.643-.22.64-.221.641-.223.64-.225.639-.229.637-.228.636-.23.635-.232.634-.235.634-.235.632-.239.633-.238.63-.242.63-.242.63-.246.627-.245.627-.249.625-.249.626-.252.623-.252.624-.256.622-.257.62-.257.62-.261.62-.26.618-.265.617-.266.617-.266.613-.269.615-.27.614-.272.612-.274.61-.275.61-.277.608-.278.609-.281.606-.282.607-.282.605-.287.603-.286.604-.288.6-.291.601-.292.6-.293.598-.297.597-.296.596-.298.597-.3.593-.302.593-.303.593-.305.59-.307.589-.308.59-.309.588-.312.586-.313.586-.316.583-.315.583-.319.582-.318.582-.32.579-.324.58-.324.577-.326.576-.327.576-.329.574-.33.573-.333.571-.334.57-.334.57-.337.57-.34.567-.338.566-.341.565-.343.563-.346.564-.346.56-.347.561-.348.56-.351.556-.353.558-.353.555-.356.554-.356.554-.358.55-.36.552-.36.55-.364.548-.364.547-.367.545-.366.546-.37.543-.37.542-.371.54-.373.54-.375.54-.375.536-.379.535-.38.535-.38.534-.381.533-.384.53-.385.53-.387.528-.387.527-.39.526-.39.525-.392.524-.394.521-.395.522-.397.518-.397.518-.4.518-.401.514-.403.515-.403.513-.404.511-.408.511-.407.508-.409.508-.41.506-.413.506-.414.503-.414.503-.416.5-.42.5-.417.498-.42.497-.423.496-.423.495-.424.492-.426.49-.428.492-.428.489-.431.487-.431.486-.433.484-.433.484-.436.482-.436.48-.438.48-.44.477-.441.477-.442.474-.443.473-.445.473-.446.47-.447.47-.45.467-.45.467-.451.465-.452.464-.455.462-.455.46-.456.46-.457.457-.46.456-.46.455-.462.454-.462.451-.465.45-.466.45-.466.448-.467.445-.47.445-.471.443-.472.441-.472.442-.476.438-.475.438-.476.434-.479.435-.478.433-.481.43-.482.43-.483.428-.485.426-.484.426-.488.423-.487.422-.49.421-.49.42-.49.417-.495.416-.492.414-.496.412-.496.411-.498.41-.5.408-.498.407-.502.404-.502.404-.503.402-.504.4-.507.4-.507.397-.508.395-.51.394-.51.392-.51.392-.514.388-.514.387-.515.387-.516.383-.517.384-.52.38-.52.38-.519.378-.521.377-.524.373-.524.373-.525.372-.527.37-.526.368-.529.366-.53.365-.531.363-.532.361-.534.36-.533.357-.535.357-.537.354-.537.355-.538.35-.539.35-.54.348-.542.346-.544.345-.543.343-.544.34-.547.34-.547.337-.547.338-.549.334-.55.332-.55.33-.553.33-.554.329-.553.325-.556.324-.556.322-.557.32-.559.319-.559.317-.56.315-.561.314-.562.312-.565.31-.564.308-.565.305-.566.305-.568.304-.567.3-.571.3-.57.298-.57.295-.573.294-.572.292-.575.291-.576.288-.576.287-.576.284-.58.283-.577.281-.58.28-.582.278-.581.276-.583.274-.583.271-.584.27-.587.27-.586.266-.588.264-.588.264-.59.261-.589.26-.591.256-.592.256-.593.252-.593.252-.595.251-.596.247-.596.246-.597.245-.598.242-.6.24-.6.239-.6.235-.601.235-.604.234-.603.23-.605.228-.605.227-.605.225-.606.223-.609.221-.608.22-.61.217-.61.216-.61.213-.612.211-.614.21-.613.208-.614.204-.615.205-.617.201-.617.2-.617.197-.618.196-.619.194-.62.191-.622.19-.62.189-.623.184-.623.184-.624.182-.626.179-.625.179-.625.175-.628.174-.628.17-.63.171-.628.167-.63.167-.631.164-.632.16-.633.16-.632.157-.634.155-.634.153-.635.152-.636.15-.637.147-.638.144-.637.144-.64.141-.64.138-.639.138-.643.135-.64.133-.643.13-.642.127-.644.128-.645.124-.645.121-.646.121-.646.118-.648.116-.647.112-.65.113-.649.109-.65.107-.65.106-.651.102-.651.102-.653.099-.654.095-.653.096-.654.092-.657.09-.654.087-.656.087-.658.084-.658.081-.657.079-.658.076-.66.075-.661.074-.66.071-.66.068-.664.067-.66.063-.664.061-.664.06-.663.058-.665.056-.666.053-.665.05-.668.049-.666.046-.668.044-.668.043-.668.039-.67.037-.67.034-.67.035-.671.03-.672.028-.671.027-.673.024-.672.022-.674.019-.674.017-.674.015-.675.012-.675.01-.677.009-.676.005-.677.003-.67.002z" fill="#fff"/><path d="M254.917 66.279c-9.36 0-16.931-14.505-16.931-32.427 0 10.61 23.77 19.195 53.146 19.195-9.9 0-17.91-17.17-17.91-38.391 0 15.135 35.224 27.382 78.754 27.382a330.42 330.42 0 0 1 26.483-1.058c113.707 0 205.715 75.164 205.715 168.052-3.386 5.497-6.232 14.046-8.863 27.302 0-71.894-91.734-130.069-205.099-130.069-112.82 0-204.11 58.175-204.11 130.07-4.427-20.991-9.383-31.034-16.055-35.788l-.003.008c0-56.389 41.757-105.9 104.87-134.28" fill="#fff" fill-rule="nonzero" stroke="#fff" stroke-width="1.704"/><path d="M189.913 748.236c0 28.117-22.105 50.909-49.374 50.909-27.268 0-49.373-22.792-49.373-50.909 0-28.117 22.105-50.908 49.373-50.908 27.269 0 49.374 22.791 49.374 50.908zm361.703 16.104c0 6.269-5.873 11.352-13.117 11.352-7.243 0-13.115-5.083-13.115-11.351 0-6.268 5.872-11.352 13.115-11.352 7.244 0 13.117 5.084 13.117 11.352z" fill="none"/></svg>